<svg width="50" height="50" viewBox="0 0 50 50" fill="none" xmlns="http://www.w3.org/2000/svg">
<path d="M25 50C18.5574 50 12.4799 49.1406 7.88691 47.5802C1.36836 45.3655 0 42.5288 0 40.5392C0 37.9436 2.31924 36.1246 4.26475 35.0559C4.97402 34.6663 5.86436 34.9254 6.25391 35.6344C6.64346 36.3435 6.38447 37.2341 5.67539 37.6235C3.93047 38.5821 2.92969 39.6448 2.92969 40.5392C2.92969 41.633 4.47949 43.3283 8.82939 44.8061C13.1268 46.2663 18.8696 47.0703 25 47.0703C31.1304 47.0703 36.8732 46.2663 41.1706 44.8061C45.5205 43.3284 47.0703 41.633 47.0703 40.5392C47.0703 39.6448 46.0695 38.5821 44.3246 37.6234C43.6155 37.234 43.3565 36.3434 43.7461 35.6343C44.1354 34.9253 45.026 34.6662 45.7353 35.0558C47.6808 36.1246 50 37.9436 50 40.5392C50 42.5288 48.6316 45.3655 42.1131 47.5802C37.5201 49.1406 31.4426 50 25 50Z" fill="#C9DFF7"/>
<path d="M45.7351 35.0559C45.0258 34.6663 44.1353 34.9254 43.7459 35.6344C43.3564 36.3435 43.6153 37.2341 44.3244 37.6236C46.0693 38.5822 47.0701 39.6449 47.0701 40.5392C47.0701 41.6331 45.5203 43.3284 41.1704 44.8062C36.8731 46.2664 31.1302 47.0704 24.9998 47.0704C24.9997 47.0704 24.9995 47.0704 24.9995 47.0704V50.0001C24.9995 50.0001 24.9997 50.0001 24.9998 50.0001C31.4424 50.0001 37.5199 49.1407 42.1129 47.5802C48.6315 45.3656 49.9998 42.5289 49.9998 40.5392C49.9998 37.9436 47.6806 36.1246 45.7351 35.0559Z" fill="#AECEF2"/>
<path d="M25.0001 43.9932C20.842 43.9932 16.9143 43.5306 13.9407 42.6905C10.3027 41.6628 8.45807 40.1751 8.45807 38.2691C8.45807 36.3629 10.3027 34.8754 13.9407 33.8478C16.9143 33.0076 20.842 32.545 25.0001 32.545C29.1582 32.545 33.0858 33.0076 36.0594 33.8478C39.6974 34.8754 41.5421 36.363 41.5421 38.2691C41.5421 40.1751 39.6974 41.6628 36.0594 42.6905C33.0858 43.5305 29.1582 43.9932 25.0001 43.9932ZM11.4126 38.269C11.6136 38.5642 12.5917 39.3319 15.269 40.0137C17.9265 40.6906 21.3825 41.0634 25 41.0634C28.6174 41.0634 32.0735 40.6906 34.731 40.0137C37.4084 39.3319 38.3864 38.5641 38.5875 38.269C38.3863 37.9739 37.4083 37.2062 34.7309 36.5242C32.0734 35.8474 28.6175 35.4746 25 35.4746C21.3824 35.4746 17.9265 35.8474 15.269 36.5242C12.5918 37.2063 11.6137 37.9739 11.4126 38.269ZM38.621 38.3296H38.622H38.621Z" fill="#C9DFF7"/>
<path d="M36.0592 33.8457C33.0856 33.0056 29.1579 32.543 24.9998 32.543C24.9997 32.543 24.9995 32.543 24.9995 32.543V35.4727C24.9995 35.4727 24.9997 35.4727 24.9998 35.4727C28.6174 35.4727 32.0733 35.8454 34.7308 36.5223C37.4081 37.2042 38.3863 37.9719 38.5873 38.267C38.3862 38.5622 37.4082 39.3299 34.7309 40.0117C32.0734 40.6887 28.6174 41.0614 24.9998 41.0614C24.9997 41.0614 24.9995 41.0614 24.9995 41.0614V43.9911C24.9995 43.9911 24.9997 43.9911 24.9998 43.9911C29.1579 43.9911 33.0856 43.5285 36.0592 42.6884C39.6972 41.6607 41.5418 40.173 41.5418 38.267C41.5418 36.3609 39.6972 34.8733 36.0592 33.8457Z" fill="#AECEF2"/>
<path d="M24.9999 0C17.4913 0 11.3827 6.10859 11.3827 13.6171C11.3827 18.2939 17.0646 28.5719 21.8311 36.3704C22.5114 37.4835 23.696 38.1479 24.9999 38.1479C26.3039 38.1479 27.4884 37.4834 28.1686 36.3704C32.9352 28.5719 38.6171 18.2939 38.6171 13.6171C38.6171 6.10859 32.5085 0 24.9999 0ZM24.9999 18.1554C21.9819 18.1554 19.5265 15.7001 19.5265 12.6821C19.5265 9.66426 21.9819 7.20898 24.9999 7.20898C28.0178 7.20898 30.4732 9.66426 30.4732 12.6821C30.4732 15.7002 28.0178 18.1554 24.9999 18.1554Z" fill="#FEED57"/>
<path d="M24.9998 0C24.9997 0 24.9995 0 24.9995 0V7.20898C24.9995 7.20898 24.9997 7.20898 24.9998 7.20898C28.0178 7.20898 30.4732 9.66426 30.4732 12.6821C30.4732 15.7001 28.0178 18.1554 24.9998 18.1554C24.9997 18.1554 24.9995 18.1554 24.9995 18.1554V38.1479C24.9995 38.1479 24.9997 38.1479 24.9998 38.1479C26.3038 38.1479 27.4883 37.4834 28.1686 36.3704C32.9352 28.5719 38.617 18.2939 38.617 13.6171C38.617 6.10859 32.5084 0 24.9998 0Z" fill="#DBAB02"/>
</svg>
